<svg width="100" height="56" viewBox="0 0 100 56" fill="none" xmlns="http://www.w3.org/2000/svg">
<path d="M20.4063 1.4V56H12.6843V8.186H0.360328V1.4H20.4063ZM49.2755 1.4V56H41.5535V8.186H29.2295V1.4H49.2755ZM99.5946 49.214V56H60.3606V50.696L82.5906 29.246C85.2946 26.646 87.1146 24.41 88.0506 22.538C88.9866 20.614 89.4546 18.69 89.4546 16.766C89.4546 13.906 88.4406 11.696 86.4126 10.136C84.4366 8.524 81.5766 7.718 77.8326 7.718C71.8006 7.718 67.1466 9.694 63.8706 13.646L58.5666 9.044C60.6986 6.444 63.4806 4.416 66.9126 2.96C70.3966 1.504 74.2706 0.776 78.5346 0.776C84.2546 0.776 88.8046 2.154 92.1846 4.91C95.5646 7.614 97.2546 11.306 97.2546 15.986C97.2546 18.898 96.6306 21.654 95.3826 24.254C94.1346 26.854 91.7686 29.818 88.2846 33.146L71.5926 49.214H99.5946Z" fill="#FFB800"/>
</svg>
