<svg width="86" height="57" viewBox="0 0 86 57" fill="none" xmlns="http://www.w3.org/2000/svg">
<path d="M41.4071 49.214V56H2.17311V50.696L24.4031 29.246C27.1071 26.646 28.9271 24.41 29.8631 22.538C30.7991 20.614 31.2671 18.69 31.2671 16.766C31.2671 13.906 30.2531 11.696 28.2251 10.136C26.2491 8.524 23.3891 7.718 19.6451 7.718C13.6131 7.718 8.95911 9.694 5.68311 13.646L0.379109 9.044C2.51111 6.444 5.29311 4.416 8.72511 2.96C12.2091 1.504 16.0831 0.776 20.3471 0.776C26.0671 0.776 30.6171 2.154 33.9971 4.91C37.3771 7.614 39.0671 11.306 39.0671 15.986C39.0671 18.898 38.4431 21.654 37.1951 24.254C35.9471 26.854 33.5811 29.818 30.0971 33.146L13.4051 49.214H41.4071ZM68.7242 24.332C74.0802 24.852 78.1622 26.516 80.9702 29.324C83.7782 32.08 85.1822 35.616 85.1822 39.932C85.1822 43.052 84.4022 45.886 82.8422 48.434C81.2822 50.93 78.9422 52.932 75.8222 54.44C72.7542 55.896 68.9842 56.624 64.5122 56.624C60.6122 56.624 56.8682 56.052 53.2802 54.908C49.6922 53.712 46.7542 52.074 44.4662 49.994L48.0542 43.832C49.9262 45.6 52.3182 47.03 55.2302 48.122C58.1422 49.162 61.2362 49.682 64.5122 49.682C68.5682 49.682 71.7142 48.824 73.9502 47.108C76.2382 45.392 77.3822 43.026 77.3822 40.01C77.3822 36.994 76.2642 34.654 74.0282 32.99C71.7922 31.326 68.4122 30.494 63.8882 30.494H59.5202V25.034L73.2482 8.186H46.9622V1.4H82.9982V6.704L68.7242 24.332Z" fill="#FFB800"/>
</svg>
