<svg width="254" height="68" viewBox="0 0 254 68" fill="none" xmlns="http://www.w3.org/2000/svg">
<path d="M24.1984 22.85C27.7864 22.85 30.9844 23.526 33.7924 24.878C36.6524 26.23 38.8884 28.18 40.5004 30.728C42.1124 33.224 42.9184 36.11 42.9184 39.386C42.9184 42.818 42.0604 45.834 40.3444 48.434C38.6804 51.034 36.3664 53.062 33.4024 54.518C30.4904 55.922 27.2144 56.624 23.5744 56.624C16.2424 56.624 10.5744 54.258 6.57044 49.526C2.61844 44.794 0.642438 38.086 0.642438 29.402C0.642438 23.318 1.70844 18.144 3.84044 13.88C6.02444 9.564 9.04044 6.314 12.8884 4.13C16.7884 1.894 21.3124 0.776 26.4604 0.776C29.1124 0.776 31.6084 1.062 33.9484 1.634C36.2884 2.154 38.3164 2.934 40.0324 3.974L37.0684 10.058C34.4684 8.342 30.9844 7.484 26.6164 7.484C20.9484 7.484 16.5024 9.252 13.2784 12.788C10.0544 16.272 8.44244 21.368 8.44244 28.076C8.44244 28.908 8.46844 29.558 8.52044 30.026C10.0804 27.686 12.2124 25.918 14.9164 24.722C17.6724 23.474 20.7664 22.85 24.1984 22.85ZM23.2624 50.306C26.8504 50.306 29.7624 49.344 31.9984 47.42C34.2344 45.496 35.3524 42.922 35.3524 39.698C35.3524 36.474 34.2084 33.926 31.9204 32.054C29.6844 30.13 26.6684 29.168 22.8724 29.168C20.4284 29.168 18.2444 29.636 16.3204 30.572C14.4484 31.508 12.9664 32.782 11.8744 34.394C10.8344 36.006 10.3144 37.8 10.3144 39.776C10.3144 41.7 10.8084 43.468 11.7964 45.08C12.8364 46.64 14.3184 47.914 16.2424 48.902C18.2184 49.838 20.5584 50.306 23.2624 50.306ZM87.1591 49.214V56H47.9251V50.696L70.1551 29.246C72.8591 26.646 74.6791 24.41 75.6151 22.538C76.5511 20.614 77.0191 18.69 77.0191 16.766C77.0191 13.906 76.0051 11.696 73.9771 10.136C72.0011 8.524 69.1411 7.718 65.3971 7.718C59.3651 7.718 54.7111 9.694 51.4351 13.646L46.1311 9.044C48.2631 6.444 51.0451 4.416 54.4771 2.96C57.9611 1.504 61.8351 0.776 66.0991 0.776C71.8191 0.776 76.3691 2.154 79.7491 4.91C83.1291 7.614 84.8191 11.306 84.8191 15.986C84.8191 18.898 84.1951 21.654 82.9471 24.254C81.6991 26.854 79.3331 29.818 75.8491 33.146L59.1571 49.214H87.1591ZM99.5598 45.782C101.016 45.782 102.212 46.302 103.148 47.342C104.136 48.33 104.63 49.578 104.63 51.086C104.63 51.866 104.526 52.62 104.318 53.348C104.162 54.076 103.824 55.194 103.304 56.702L99.6378 67.544H94.7238L97.6098 55.922C96.6218 55.558 95.8158 54.96 95.1918 54.128C94.6198 53.244 94.3338 52.23 94.3338 51.086C94.3338 49.526 94.8278 48.252 95.8158 47.264C96.8038 46.276 98.0518 45.782 99.5598 45.782ZM127.606 23.162C135.406 23.162 141.126 24.644 144.766 27.608C148.458 30.52 150.304 34.524 150.304 39.62C150.304 42.844 149.524 45.756 147.964 48.356C146.456 50.904 144.142 52.932 141.022 54.44C137.954 55.896 134.158 56.624 129.634 56.624C125.786 56.624 122.068 56.052 118.48 54.908C114.892 53.712 111.928 52.074 109.588 49.994L113.176 43.832C115.048 45.6 117.44 47.03 120.352 48.122C123.264 49.162 126.332 49.682 129.556 49.682C133.664 49.682 136.836 48.824 139.072 47.108C141.36 45.34 142.504 42.948 142.504 39.932C142.504 36.656 141.256 34.186 138.76 32.522C136.264 30.806 132 29.948 125.968 29.948H113.566L116.452 1.4H147.262V8.186H123.004L121.522 23.162H127.606ZM179.103 56.624C174.787 56.624 170.939 55.532 167.559 53.348C164.231 51.112 161.605 47.888 159.681 43.676C157.757 39.464 156.795 34.472 156.795 28.7C156.795 22.928 157.757 17.936 159.681 13.724C161.605 9.512 164.231 6.314 167.559 4.13C170.939 1.894 174.787 0.776 179.103 0.776C183.367 0.776 187.163 1.894 190.491 4.13C193.871 6.314 196.523 9.512 198.447 13.724C200.371 17.936 201.333 22.928 201.333 28.7C201.333 34.472 200.371 39.464 198.447 43.676C196.523 47.888 193.871 51.112 190.491 53.348C187.163 55.532 183.367 56.624 179.103 56.624ZM179.103 49.682C183.471 49.682 186.955 47.888 189.555 44.3C192.207 40.712 193.533 35.512 193.533 28.7C193.533 21.888 192.207 16.688 189.555 13.1C186.955 9.512 183.471 7.718 179.103 7.718C174.683 7.718 171.147 9.512 168.495 13.1C165.895 16.688 164.595 21.888 164.595 28.7C164.595 35.512 165.895 40.712 168.495 44.3C171.147 47.888 174.683 49.682 179.103 49.682ZM231.128 56.624C226.812 56.624 222.964 55.532 219.584 53.348C216.256 51.112 213.63 47.888 211.706 43.676C209.782 39.464 208.82 34.472 208.82 28.7C208.82 22.928 209.782 17.936 211.706 13.724C213.63 9.512 216.256 6.314 219.584 4.13C222.964 1.894 226.812 0.776 231.128 0.776C235.392 0.776 239.188 1.894 242.516 4.13C245.896 6.314 248.548 9.512 250.472 13.724C252.396 17.936 253.358 22.928 253.358 28.7C253.358 34.472 252.396 39.464 250.472 43.676C248.548 47.888 245.896 51.112 242.516 53.348C239.188 55.532 235.392 56.624 231.128 56.624ZM231.128 49.682C235.496 49.682 238.98 47.888 241.58 44.3C244.232 40.712 245.558 35.512 245.558 28.7C245.558 21.888 244.232 16.688 241.58 13.1C238.98 9.512 235.496 7.718 231.128 7.718C226.708 7.718 223.172 9.512 220.52 13.1C217.92 16.688 216.62 21.888 216.62 28.7C216.62 35.512 217.92 40.712 220.52 44.3C223.172 47.888 226.708 49.682 231.128 49.682Z" fill="#FFB800"/>
</svg>
