<svg width="43" height="57" viewBox="0 0 43 57" fill="none" xmlns="http://www.w3.org/2000/svg">
<path d="M19.3797 0.776C26.7117 0.776 32.3537 3.142 36.3057 7.874C40.3097 12.606 42.3117 19.314 42.3117 27.998C42.3117 34.082 41.2197 39.282 39.0357 43.598C36.9037 47.862 33.8877 51.112 29.9877 53.348C26.1397 55.532 21.6417 56.624 16.4937 56.624C13.8417 56.624 11.3457 56.364 9.00569 55.844C6.66569 55.272 4.63769 54.466 2.92169 53.426L5.88569 47.342C8.53769 49.058 12.0477 49.916 16.4157 49.916C22.0837 49.916 26.5037 48.174 29.6757 44.69C32.8997 41.154 34.5117 36.032 34.5117 29.324V27.374C32.9517 29.714 30.7937 31.508 28.0377 32.756C25.2817 33.952 22.1877 34.55 18.7557 34.55C15.1677 34.55 11.9437 33.874 9.08369 32.522C6.27569 31.17 4.06569 29.246 2.45369 26.75C0.893688 24.202 0.113688 21.29 0.113688 18.014C0.113688 14.582 0.945688 11.566 2.60969 8.966C4.32569 6.366 6.63969 4.364 9.55169 2.96C12.4637 1.504 15.7397 0.776 19.3797 0.776ZM20.0817 28.232C22.5257 28.232 24.7097 27.764 26.6337 26.828C28.5577 25.892 30.0397 24.618 31.0797 23.006C32.1717 21.394 32.7177 19.6 32.7177 17.624C32.7177 15.7 32.1977 13.958 31.1577 12.398C30.1697 10.786 28.6877 9.512 26.7117 8.576C24.7877 7.588 22.4477 7.094 19.6917 7.094C16.1037 7.094 13.1917 8.056 10.9557 9.98C8.77169 11.904 7.67969 14.478 7.67969 17.702C7.67969 20.926 8.79769 23.5 11.0337 25.424C13.2697 27.296 16.2857 28.232 20.0817 28.232Z" fill="#FFB800"/>
</svg>
